{
  "source": "C:\\Users\\Peter\\Desktop\\stuff\\MIUN\\quantitative_research\\video_compression\\videos\\BVI-HD\\BVI-HD_CDVL_videos\\ORIG\\CarpetCircleFast_1920x1080_60fps.mp4",
  "output": "C:\\Users\\Peter\\Desktop\\stuff\\MIUN\\quantitative_research\\video_compression\\compressed_videos\\BVI-HD\\av1\\3\\CarpetCircleFast_1920x1080_60fps_av1.mkv",
  "codec": "av1",
  "ok": "Input #0, mov,mp4,m4a,3gp,3g2,mj2, from 'C:\\Users\\Peter\\Desktop\\stuff\\MIUN\\quantitative_research\\video_compression\\videos\\BVI-HD\\BVI-HD_CDVL_videos\\ORIG\\CarpetCircleFast_1920x1080_60fps.mp4':\n  Metadata:\n    major_brand     : isom\n    minor_version   : 512\n    compatible_brands: isomiso2avc1mp41\n    encoder         : Lavf54.28.101\n  Duration: 00:00:05.00, start: 0.000000, bitrate: 324759 kb/s\n  Stream #0:0[0x1](und): Video: h264 (High 4:4:4 Predictive) (avc1 / 0x31637661), yuv420p(progressive), 1920x1080, 324754 kb/s, 60 fps, 60 tbr, 60 tbn (default)\n    Metadata:\n      handler_name    : VideoHandler\n      vendor_id       : [0][0][0][0]\n[out#0/matroska @ 0000022b5683cd80] Codec AVOption b:a (set bitrate (in bits/s)) has not been used for any stream. The most likely reason is either wrong type (e.g. a video option with no video streams) or that it is a private option of some decoder which was not actually used for any stream.\nStream mapping:\n  Stream #0:0 -> #0:0 (h264 (native) -> av1 (libsvtav1))\nPress [q] to stop, [?] for help\nSvt[info]: -------------------------------------------\nSvt[info]: SVT [version]:\tSVT-AV1 Encoder Lib v3.1.0-19-g6ecfe8ec\nSvt[info]: SVT [build]  :\tGCC 15.2.0\t 64 bit\nSvt[info]: LIB Build date: Aug 17 2025 11:37:13\nSvt[info]: -------------------------------------------\nSvt[info]: Level of Parallelism: 5\nSvt[info]: Number of PPCS 93\nSvt[info]: [asm level on system : up to avx2]\nSvt[info]: [asm level selected : up to avx2]\nSvt[info]: -------------------------------------------\nSvt[info]: SVT [config]: main profile\ttier (auto)\tlevel (auto)\nSvt[info]: SVT [config]: width / height / fps numerator / fps denominator \t\t: 1920 / 1080 / 60 / 1\nSvt[info]: SVT [config]: bit-depth / color format \t\t\t\t\t: 8 / YUV420\nSvt[info]: SVT [config]: preset / tune / pred struct \t\t\t\t\t: 4 / PSNR / random access\nSvt[info]: SVT [config]: gop size / mini-gop size / key-frame type \t\t\t: 321 / 16 / key frame\nSvt[info]: SVT [config]: BRC mode / target bitrate (kbps)\t\t\t\t: VBR / 3000 \nSvt[info]: SVT [config]: AQ mode / Variance Boost \t\t\t\t\t: 2 / 0\nSvt[info]: SVT [config]: sharpness / luminance-based QP bias \t\t\t\t: 0 / 0\nSvt[info]: SVT [config]: QP scale compress strength \t\t\t\t\t: 0\nSvt[info]: -------------------------------------------\nOutput #0, matroska, to 'C:\\Users\\Peter\\Desktop\\stuff\\MIUN\\quantitative_research\\video_compression\\compressed_videos\\BVI-HD\\av1\\3\\CarpetCircleFast_1920x1080_60fps_av1.mkv':\n  Metadata:\n    major_brand     : isom\n    minor_version   : 512\n    compatible_brands: isomiso2avc1mp41\n    encoder         : Lavf62.3.100\n  Stream #0:0(und): Video: av1 (AV01 / 0x31305641), yuv420p(tv, progressive), 1920x1080, q=2-31, 3000 kb/s, 60 fps, 1k tbn (default)\n    Metadata:\n      encoder         : Lavc62.11.100 libsvtav1\n      handler_name    : VideoHandler\n      vendor_id       : [0][0][0][0]\n    Side data:\n      cpb: bitrate max/min/avg: 0/0/3000000 buffer size: 3000000 vbv_delay: N/A\nframe=    0 fps=0.0 q=0.0 size=       0KiB time=N/A bitrate=N/A speed=N/A elapsed=0:00:01.09    \nframe=    0 fps=0.0 q=0.0 size=       0KiB time=N/A bitrate=N/A speed=N/A elapsed=0:00:01.70    \nframe=    0 fps=0.0 q=0.0 size=       0KiB time=N/A bitrate=N/A speed=N/A elapsed=0:00:02.93    \nframe=    0 fps=0.0 q=0.0 size=       0KiB time=N/A bitrate=N/A speed=N/A elapsed=0:00:03.46    \nframe=    0 fps=0.0 q=0.0 size=       0KiB time=N/A bitrate=N/A speed=N/A elapsed=0:00:03.99    \nframe=    0 fps=0.0 q=0.0 size=       0KiB time=N/A bitrate=N/A speed=N/A elapsed=0:00:04.54    \nframe=    1 fps=0.2 q=15.0 size=       1KiB time=00:00:00.00 bitrate=N/A speed=   0x elapsed=0:00:05.08    \nframe=    1 fps=0.2 q=15.0 size=       1KiB time=00:00:00.00 bitrate=N/A speed=   0x elapsed=0:00:05.64    \nframe=    8 fps=1.3 q=34.0 size=       1KiB time=00:00:00.10 bitrate=  57.0kbits/s speed=0.0161x elapsed=0:00:06.20    \nframe=   11 fps=1.6 q=32.0 size=       1KiB time=00:00:00.16 bitrate=  34.2kbits/s speed=0.0247x elapsed=0:00:06.73    \nframe=   15 fps=2.1 q=30.0 size=       1KiB time=00:00:00.23 bitrate=  24.4kbits/s speed=0.0321x elapsed=0:00:07.26    \nframe=   20 fps=2.6 q=22.0 size=       1KiB time=00:00:00.31 bitrate=  18.0kbits/s speed=0.0407x elapsed=0:00:07.78    \nframe=   23 fps=2.8 q=22.0 size=       1KiB time=00:00:00.36 bitrate=  15.5kbits/s speed=0.0441x elapsed=0:00:08.31    \nframe=   27 fps=3.1 q=26.0 size=       1KiB time=00:00:00.43 bitrate=  13.1kbits/s speed=0.049x elapsed=0:00:08.84    \nframe=   32 fps=3.4 q=25.0 size=       1KiB time=00:00:00.51 bitrate=  11.0kbits/s speed=0.0549x elapsed=0:00:09.40    \nframe=   35 fps=3.5 q=25.0 size=       1KiB time=00:00:00.56 bitrate=  10.1kbits/s speed=0.0571x elapsed=0:00:09.92    \nframe=   38 fps=3.6 q=20.0 size=       1KiB time=00:00:00.61 bitrate=   9.2kbits/s speed=0.059x elapsed=0:00:10.45    \nframe=   40 fps=3.6 q=20.0 size=       1KiB time=00:00:00.65 bitrate=   8.8kbits/s speed=0.0592x elapsed=0:00:10.98    \nframe=   43 fps=3.7 q=35.0 size=       1KiB time=00:00:00.70 bitrate=   8.1kbits/s speed=0.0604x elapsed=0:00:11.58    \nframe=   46 fps=3.8 q=21.0 size=       1KiB time=00:00:00.75 bitrate=   7.6kbits/s speed=0.0618x elapsed=0:00:12.13    \nframe=   49 fps=3.9 q=17.0 size=       1KiB time=00:00:00.80 bitrate=   7.1kbits/s speed=0.0629x elapsed=0:00:12.72    \nframe=   51 fps=3.8 q=23.0 size=       1KiB time=00:00:00.83 bitrate=   6.8kbits/s speed=0.0629x elapsed=0:00:13.24    \nframe=   54 fps=3.9 q=25.0 size=       1KiB time=00:00:00.88 bitrate=   6.4kbits/s speed=0.064x elapsed=0:00:13.79    \nframe=   58 fps=4.0 q=33.0 size=       1KiB time=00:00:00.95 bitrate=   6.0kbits/s speed=0.0663x elapsed=0:00:14.33    \nframe=   60 fps=4.0 q=32.0 size=       1KiB time=00:00:00.98 bitrate=   5.8kbits/s speed=0.066x elapsed=0:00:14.88    \nframe=   65 fps=4.2 q=16.0 size=       1KiB time=00:00:01.06 bitrate=   5.3kbits/s speed=0.069x elapsed=0:00:15.46    \nframe=   67 fps=4.2 q=34.0 size=       1KiB time=00:00:01.10 bitrate=   5.2kbits/s speed=0.0686x elapsed=0:00:16.02    \nframe=   70 fps=4.2 q=28.0 size=       1KiB time=00:00:01.15 bitrate=   5.0kbits/s speed=0.0694x elapsed=0:00:16.58    \nframe=   74 fps=4.3 q=34.0 size=       1KiB time=00:00:01.20 bitrate=   4.7kbits/s speed=0.0701x elapsed=0:00:17.10    \nframe=   79 fps=4.5 q=33.0 size=       1KiB time=00:00:01.30 bitrate=   4.4kbits/s speed=0.0733x elapsed=0:00:17.73    \nframe=   84 fps=4.6 q=32.0 size=       1KiB time=00:00:01.38 bitrate=   4.1kbits/s speed=0.0755x elapsed=0:00:18.32    \nframe=   88 fps=4.7 q=32.0 size=       1KiB time=00:00:01.45 bitrate=   3.9kbits/s speed=0.0768x elapsed=0:00:18.89    \nframe=   94 fps=4.8 q=32.0 size=       1KiB time=00:00:01.55 bitrate=   3.7kbits/s speed=0.0794x elapsed=0:00:19.52    \nframe=   98 fps=4.9 q=31.0 size=       1KiB time=00:00:01.61 bitrate=   3.5kbits/s speed=0.0804x elapsed=0:00:20.09    \nframe=  102 fps=4.9 q=31.0 size=       1KiB time=00:00:01.68 bitrate=   3.4kbits/s speed=0.0815x elapsed=0:00:20.64    \nframe=  107 fps=5.1 q=34.0 size=       1KiB time=00:00:01.76 bitrate=   3.2kbits/s speed=0.0834x elapsed=0:00:21.17    \nframe=  112 fps=5.2 q=30.0 size=       1KiB time=00:00:01.85 bitrate=   3.1kbits/s speed=0.0851x elapsed=0:00:21.74    \nframe=  117 fps=5.3 q=32.0 size=       1KiB time=00:00:01.93 bitrate=   2.9kbits/s speed=0.0868x elapsed=0:00:22.27    \nframe=  123 fps=5.4 q=33.0 size=       1KiB time=00:00:02.03 bitrate=   2.8kbits/s speed=0.0892x elapsed=0:00:22.80    \nframe=  130 fps=5.6 q=32.0 size=       1KiB time=00:00:02.15 bitrate=   2.6kbits/s speed=0.0921x elapsed=0:00:23.35    \nframe=  136 fps=5.7 q=31.0 size=       1KiB time=00:00:02.23 bitrate=   2.6kbits/s speed=0.0935x elapsed=0:00:23.89    \nframe=  141 fps=5.8 q=22.0 size=       1KiB time=00:00:02.33 bitrate=   2.4kbits/s speed=0.0953x elapsed=0:00:24.47    \nframe=  149 fps=6.0 q=30.0 size=       1KiB time=00:00:02.46 bitrate=   2.3kbits/s speed=0.0986x elapsed=0:00:25.01    \nframe=  154 fps=6.0 q=31.0 size=       1KiB time=00:00:02.55 bitrate=   2.2kbits/s speed=0.0998x elapsed=0:00:25.54    \nframe=  160 fps=6.1 q=33.0 size=       1KiB time=00:00:02.65 bitrate=   2.1kbits/s speed=0.102x elapsed=0:00:26.05    \nframe=  166 fps=6.2 q=29.0 size=       1KiB time=00:00:02.75 bitrate=   2.1kbits/s speed=0.103x elapsed=0:00:26.58    \nframe=  171 fps=6.3 q=29.0 size=       1KiB time=00:00:02.83 bitrate=   2.0kbits/s speed=0.105x elapsed=0:00:27.10    \nframe=  180 fps=6.5 q=33.0 size=       1KiB time=00:00:02.98 bitrate=   1.9kbits/s speed=0.108x elapsed=0:00:27.62    \nframe=  186 fps=6.6 q=33.0 size=       1KiB time=00:00:03.06 bitrate=   1.9kbits/s speed=0.109x elapsed=0:00:28.14    \nframe=  194 fps=6.8 q=32.0 size=       1KiB time=00:00:03.21 bitrate=   1.8kbits/s speed=0.112x elapsed=0:00:28.69    \nframe=  199 fps=6.8 q=31.0 size=       1KiB time=00:00:03.30 bitrate=   1.7kbits/s speed=0.113x elapsed=0:00:29.22    \nframe=  205 fps=6.9 q=22.0 size=       1KiB time=00:00:03.40 bitrate=   1.7kbits/s speed=0.114x elapsed=0:00:29.78    \nframe=  215 fps=7.1 q=34.0 size=       1KiB time=00:00:03.56 bitrate=   1.6kbits/s speed=0.118x elapsed=0:00:30.31    \nframe=  223 fps=7.2 q=33.0 size=       1KiB time=00:00:03.70 bitrate=   1.5kbits/s speed=0.12x elapsed=0:00:30.83    \nframe=  233 fps=7.4 q=29.0 size=       1KiB time=00:00:03.86 bitrate=   1.5kbits/s speed=0.123x elapsed=0:00:31.37    \nframe=  239 fps=7.5 q=32.0 size=       1KiB time=00:00:03.96 bitrate=   1.4kbits/s speed=0.124x elapsed=0:00:31.89    \nframe=  249 fps=7.7 q=29.0 size=       1KiB time=00:00:04.13 bitrate=   1.4kbits/s speed=0.127x elapsed=0:00:32.42    \nframe=  257 fps=7.8 q=14.0 size=       1KiB time=00:00:04.26 bitrate=   1.3kbits/s speed=0.13x elapsed=0:00:32.94    \nframe=  265 fps=7.9 q=28.0 size=       1KiB time=00:00:04.40 bitrate=   1.3kbits/s speed=0.131x elapsed=0:00:33.48    \nframe=  275 fps=8.1 q=32.0 size=       1KiB time=00:00:04.53 bitrate=   1.3kbits/s speed=0.133x elapsed=0:00:34.01    \nframe=  283 fps=8.2 q=34.0 size=       1KiB time=00:00:04.70 bitrate=   1.2kbits/s speed=0.136x elapsed=0:00:34.53    \n[out#0/matroska @ 0000022b5683cd80] video:1607KiB audio:0KiB subtitle:0KiB other streams:0KiB global headers:0KiB muxing overhead: 0.129477%\nframe=  300 fps=8.6 q=34.0 Lsize=    1609KiB time=00:00:04.98 bitrate=2645.6kbits/s speed=0.143x elapsed=0:00:34.81    \n",
  "seconds": 35.32847785949707,
  "probe_out": {}
}